<svg id="Layer_1" data-name="Layer 1" xmlns="http://www.w3.org/2000/svg" viewBox="0 0 45 45">
    <defs>
        <style>.cls-1{fill:#90a752;fill-rule:evenodd;}</style>
    </defs>
    <title>indregients</title>
    <path class="cls-1" d="M43.7,11a4.59,4.59,0,0,1-1.3,2.35,4.89,4.89,0,0,1-1.87,1.15l-1.19.39a.91.91,0,0,1-.23,0,.69.69,0,0,1-.53-.24.69.69,0,0,1-.1-.76l.69-1.36a5.49,5.49,0,0,0,0-3.65,5.4,5.4,0,0,0-1.87-2.47A.68.68,0,0,1,37,5.91a2.8,2.8,0,0,1,.43-1.47L35.8,2.83l1-1,1.62,1.61a2.94,2.94,0,0,1,2.19-.34l.08,0a.72.72,0,0,1,.28.13,7.89,7.89,0,0,1,2.31,3.05A8,8,0,0,1,43.7,11ZM42,6.87A6.37,6.37,0,0,0,40.2,4.46,1.49,1.49,0,0,0,39,4.74a1.53,1.53,0,0,0-.54.85A6.69,6.69,0,0,1,40.5,13a3.64,3.64,0,0,0,.91-.64,3.23,3.23,0,0,0,.91-1.65A6.6,6.6,0,0,0,42,6.87Zm-5.55,9.05.61.23.09.05a4.07,4.07,0,0,1,.55.28l.12.07c.16.1.33.2.48.31l.13.1.44.35.12.11a5,5,0,0,1,.4.4l.07.07s0,0,0,0a6.84,6.84,0,0,1,1.77,4.59c0,.23,0,.45,0,.67s0,.19,0,.29,0,.24-.06.36a3.59,3.59,0,0,1-.08.35c0,.09,0,.18-.07.27s-.08.26-.13.39-.05.14-.08.22-.11.26-.17.39a1.74,1.74,0,0,1-.1.19,2.82,2.82,0,0,1-.21.38l-.1.17-.25.38-.12.15c-.1.12-.19.24-.29.35l-.05.06h0a7,7,0,0,1-10.47,0h0l-.05-.06c-.1-.11-.2-.23-.29-.35l-.12-.15-.25-.38c0-.05-.07-.11-.11-.17l-.21-.38-.09-.2c-.06-.12-.12-.25-.17-.38a2.09,2.09,0,0,1-.08-.23c-.05-.12-.09-.25-.13-.38a2.68,2.68,0,0,1-.07-.27l-.09-.35c0-.12,0-.24-.05-.36s0-.19,0-.29,0-.44,0-.67a6.84,6.84,0,0,1,1.78-4.59s0,0,0,0l.06-.07.4-.4.13-.11c.14-.12.28-.24.43-.35l.14-.1a5.66,5.66,0,0,1,.48-.31l.12-.07a4.73,4.73,0,0,1,.55-.28l.09,0a6.44,6.44,0,0,1,.61-.24l.06,0c.22-.07.43-.13.65-.18h.06c.22-.05.44-.08.66-.11h.07c.24,0,.49,0,.74,0s.5,0,.74,0H35c.22,0,.44.06.66.11h.05l.66.17Zm2.8,9a.16.16,0,0,1,0-.07,5.46,5.46,0,0,0,.46-1.47l0-.16a6.32,6.32,0,0,0,.06-.76,5.5,5.5,0,0,0-1-3.14l-2.69,2.36a2.05,2.05,0,0,1,.16.78,1.84,1.84,0,0,1,0,.41,2.4,2.4,0,0,1-.12.38l2.68,2.36A4.82,4.82,0,0,0,39.23,25Zm-5,3.11a5.62,5.62,0,0,0,3.7-1.39L35.2,24.32a2,2,0,0,1-2,0l-2.69,2.37A5.67,5.67,0,0,0,34.19,28.07Zm.7-5.57A.66.66,0,0,0,34.7,22L34.65,22a.91.91,0,0,0-.16-.11l-.06,0a.69.69,0,0,0-.24-.05.6.6,0,0,0-.24.05l-.06,0-.17.11a.12.12,0,0,1,0,.05.7.7,0,0,0-.18.46.58.58,0,0,0,.12.37.67.67,0,0,0,1.16,0A.65.65,0,0,0,34.89,22.5Zm-5.34-3.14a5.5,5.5,0,0,0-1,3.14,4.77,4.77,0,0,0,.06.76.88.88,0,0,1,0,.16,5.86,5.86,0,0,0,.47,1.47l0,.07a5.9,5.9,0,0,0,.4.69l2.69-2.36a2.4,2.4,0,0,1-.12-.38,1.84,1.84,0,0,1,0-.41,2.05,2.05,0,0,1,.16-.78Zm6.53-2.09-.34-.11-.18,0L35.24,17,35,17l-.25,0a4.87,4.87,0,0,0-1.08,0l-.25,0-.26,0-.32.08-.18,0-.34.11-.14.05-.35.15-.12.06-.34.18-.1.06-.34.22-.07.06c-.12.08-.23.17-.34.26h0l2.68,2.36,0,0a2.39,2.39,0,0,1,.37-.15l.11,0a2,2,0,0,1,1,0l.11,0a1.94,1.94,0,0,1,.36.15l.06,0,2.68-2.36h0a4.19,4.19,0,0,0-.33-.26L37.47,18l-.35-.22L37,17.71a3.84,3.84,0,0,0-.35-.18l-.11-.06-.35-.15Zm-2.59,1.06h1.4v1.39h-1.4ZM30,21.81h1.41V23.2H30Zm4.92,4.87h-1.4V25.29h1.4Zm3.52-3.48H37V21.81h1.41Zm-7.82-14h0a6.6,6.6,0,0,1-1,1.74l0,0-.38.42-.09.09h0c-.22.21-.44.39-.67.57l-.16.12c-.24.16-.49.32-.74.46l-.1,0a5.65,5.65,0,0,1-.67.29l-.29.11-.42.11-.42.11h-.18a5.62,5.62,0,0,1-.92.07h-.17a6.72,6.72,0,0,1-4.82-2.26.7.7,0,0,1,0-1L28,1.84a.76.76,0,0,1,.52-.2.73.73,0,0,1,.5.23,7.11,7.11,0,0,1,1.58,7.34ZM23.88,7.87,21,10.69A5.22,5.22,0,0,0,24.37,12h.27ZM26,11.79l.24-.08.18-.07.26-.12.29-.16.19-.11.32-.22a.71.71,0,0,1,.14-.1c.15-.12.29-.25.43-.38a5.59,5.59,0,0,0,.45-.52l.09-.12A4.38,4.38,0,0,0,29,9.33h0L25.27,7.68Zm2.4-8.42L25.5,6.26l4,1.75A5.77,5.77,0,0,0,28.43,3.37ZM21.08,19.45h0l3.76,3.72a.69.69,0,0,1,0,1,6.42,6.42,0,0,1-7,1.31l-.07,0-.57-.29-.13-.08a5.25,5.25,0,0,1-.49-.33l-.13-.09c-.18-.15-.36-.3-.53-.47h0l0,0a5.48,5.48,0,0,1-.4-.44,1.47,1.47,0,0,0-.1-.13c-.1-.14-.2-.27-.3-.42L15,23a3.72,3.72,0,0,1-.27-.48.2.2,0,0,1,0-.08,3.54,3.54,0,0,1-.23-.53l0,0v0a6.19,6.19,0,0,1,1.46-6.55.72.72,0,0,1,1,0L20.67,19Zm-4.66-2.64a4.8,4.8,0,0,0-.87,3.87l3.38-1.39ZM16,22l.15.28.17.27a6,6,0,0,0,.52.61h0a4,4,0,0,0,.64.53l.05,0a4.47,4.47,0,0,0,.71.4l0,0,1.32-3.64Zm4.33,2.6a4.92,4.92,0,0,0,2.95-1l-2.44-2.41-1.2,3.33A5.21,5.21,0,0,0,20.36,24.59Zm-5.24-15c0,.12,0,.23,0,.35l-.09.36a2.68,2.68,0,0,1-.07.27c0,.13-.08.25-.13.38a2,2,0,0,1-.08.22c0,.13-.11.26-.17.39l-.09.19c-.07.13-.14.26-.22.39l-.1.17-.25.37-.12.15-.29.36-.05.05v0a7.08,7.08,0,0,1-10.48,0v0l-.05-.05-.29-.36-.12-.15-.25-.37-.1-.17a3.72,3.72,0,0,1-.21-.39,1.74,1.74,0,0,1-.1-.19c-.06-.13-.12-.26-.17-.39a2,2,0,0,1-.08-.22c-.05-.13-.09-.25-.13-.38a2.68,2.68,0,0,1-.07-.27c0-.12-.06-.24-.08-.36s0-.23-.06-.35,0-.2,0-.29,0-.45,0-.67A6.88,6.88,0,0,1,2.9,4V4L3,3.92c.12-.14.26-.27.39-.4L3.5,3.4l.44-.35L4.07,3c.15-.11.32-.22.48-.32l.12-.07.55-.28.09,0A4.49,4.49,0,0,1,5.92,2L6,2a5.33,5.33,0,0,1,.66-.17l.05,0c.22,0,.44-.08.66-.1h.07a6,6,0,0,1,.74,0c.25,0,.5,0,.74,0H9a6.49,6.49,0,0,1,.66.11h0c.23.05.44.11.66.18l.06,0a6.44,6.44,0,0,1,.61.24l.09,0,.55.28.12.07a5.72,5.72,0,0,1,.48.32l.14.09.43.35.13.12c.14.13.27.26.4.4l.06.06V4a6.88,6.88,0,0,1,1.77,4.6c0,.22,0,.45,0,.67S15.13,9.46,15.12,9.56Zm-7,4.6a5.61,5.61,0,0,0,3.7-1.38L9.17,10.42a2.09,2.09,0,0,1-2,0L4.46,12.78A5.61,5.61,0,0,0,8.16,14.16Zm.7-5.56a.68.68,0,0,0-.18-.46l0-.05A.45.45,0,0,0,8.46,8L8.4,8a.6.6,0,0,0-.24,0,.64.64,0,0,0-.24,0L7.86,8a.62.62,0,0,0-.17.11l0,.05a.64.64,0,0,0-.19.46A.55.55,0,0,0,7.58,9,.66.66,0,0,0,8.74,9,.55.55,0,0,0,8.86,8.6ZM3.52,5.46a5.47,5.47,0,0,0-1,3.14,6.48,6.48,0,0,0,.06.76l0,.15A5.46,5.46,0,0,0,3.08,11a.43.43,0,0,0,0,.07,5.9,5.9,0,0,0,.4.69L6.21,9.38A2.11,2.11,0,0,1,6.09,9a1.75,1.75,0,0,1,0-.4,2.1,2.1,0,0,1,.16-.79Zm8.33-1c-.11-.1-.22-.18-.34-.27l-.07,0-.34-.23-.1,0-.34-.19-.12-.05a2.17,2.17,0,0,0-.35-.15l-.14,0-.34-.11-.18,0-.31-.07L9,3.1l-.25,0L8.16,3l-.54,0-.25,0-.26,0-.32.07-.18,0-.34.11-.14,0a2.17,2.17,0,0,0-.35.15l-.11.05a3.9,3.9,0,0,0-.35.19l-.1,0-.34.23-.07,0c-.11.09-.23.17-.34.27h0L7.14,6.78l.06,0a1.94,1.94,0,0,1,.36-.15l.11,0a1.75,1.75,0,0,1,1,0l.11,0a1.94,1.94,0,0,1,.36.15l.06,0,2.68-2.36Zm1,1L10.11,7.81a2.1,2.1,0,0,1,.16.79,1.75,1.75,0,0,1,0,.4,2.11,2.11,0,0,1-.12.38l2.69,2.36a5.9,5.9,0,0,0,.4-.69.16.16,0,0,0,0-.07,5.46,5.46,0,0,0,.46-1.47l0-.15a6.48,6.48,0,0,0,.06-.76A5.47,5.47,0,0,0,12.8,5.46ZM11,7.9h1.41V9.3H11ZM7.46,4.43h1.4V5.82H7.46Zm1.4,8.34H7.46V11.38h1.4Zm-7,18.08h2.3a7.74,7.74,0,0,1,.57-3.66A7.89,7.89,0,0,1,7,24.14.74.74,0,0,1,7.29,24l.08,0a2.9,2.9,0,0,1,2.26.39L12,22.64l.84,1.12-2.2,1.63A2.71,2.71,0,0,1,11,26.76a.69.69,0,0,1-.28.56,5.48,5.48,0,0,0-1.87,2.46,4.39,4.39,0,0,0-.26,1.07H42.63a.69.69,0,0,1,.7.69A11.9,11.9,0,0,1,31.38,43.36H13.09a11.9,11.9,0,0,1-12-11.82A.69.69,0,0,1,1.83,30.85Zm7.71-4.4A1.51,1.51,0,0,0,9,25.6a1.46,1.46,0,0,0-1.21-.28A6.37,6.37,0,0,0,6,27.73a6.44,6.44,0,0,0-.38,3.69h0v.08l0,.1a3.17,3.17,0,0,0,.91,1.64,3.06,3.06,0,0,0,.91.64c-.05-.12-.09-.27-.14-.42a.19.19,0,0,0,0-.08c0-.15-.07-.3-.1-.46s0-.05,0-.08c0-.18,0-.36-.07-.56v-.06c0-.21,0-.44,0-.67h0a6.63,6.63,0,0,1,2.45-5.08ZM13.09,42H31.38A10.51,10.51,0,0,0,41.9,32.24H8.54s0,.07,0,.11l0,.19a1.18,1.18,0,0,0,0,.2l0,.16c0,.07,0,.13,0,.18l0,.13.08.23.68,1.35a.67.67,0,0,1-.31.93l-.06,0a1,1,0,0,1-.23,0h0a.83.83,0,0,1-.22,0l-1.19-.4a5,5,0,0,1-1.88-1.14c-.15-.16-.29-.32-.43-.49A1,1,0,0,0,5,33.57c-.08-.12-.16-.24-.23-.36L4.68,33a4,4,0,0,1-.17-.36,2,2,0,0,1-.08-.22,1.77,1.77,0,0,1-.06-.17H2.56A10.51,10.51,0,0,0,13.09,42Zm25.32-8.34h1.41a4.91,4.91,0,0,1-4.93,4.87V37.11A3.5,3.5,0,0,0,38.41,33.63Z" />
</svg>