<svg id="Layer_1" data-name="Layer 1" xmlns="http://www.w3.org/2000/svg" viewBox="0 0 45 45"><defs><style>.cls-1{fill:#f8b019;fill-rule:evenodd;}</style></defs><title>servings</title><path class="cls-1" d="M41.84,43.91H3.16a1,1,0,0,1-1-1V38.69a1,1,0,0,1,1-1H5.22A17.58,17.58,0,0,1,20.38,21.08a3.15,3.15,0,0,1-.93-2.23,3.05,3.05,0,1,1,6.1,0,3.15,3.15,0,0,1-.93,2.23A17.58,17.58,0,0,1,39.78,37.64h2.06a1,1,0,0,1,1,1v4.17A1,1,0,0,1,41.84,43.91ZM22.5,17.8a1,1,0,1,0,1,1.05A1,1,0,0,0,22.5,17.8Zm0,5.22A15.44,15.44,0,0,0,7.26,37.64H37.74A15.44,15.44,0,0,0,22.5,23ZM40.83,39.73H4.17v2.09H40.83ZM27.73,7.33a3.2,3.2,0,0,0-.31,4.37l-1,.89a4.39,4.39,0,0,1,.32-6.15l.13-.11A3.22,3.22,0,0,0,27.24,2l1-.88a4.4,4.4,0,0,1-.33,6.12Zm-7.55,0a3.2,3.2,0,0,0-.31,4.37l-.95.89a4.39,4.39,0,0,1,.32-6.15l.13-.11A3.23,3.23,0,0,0,19.69,2l.95-.88a4.4,4.4,0,0,1-.33,6.12Z"/></svg>